<?xml version="1.0" standalone="no"?>
<!DOCTYPE svg PUBLIC "-//W3C//DTD SVG 20010904//EN"
 "http://www.w3.org/TR/2001/REC-SVG-20010904/DTD/svg10.dtd">
<svg version="1.0" xmlns="http://www.w3.org/2000/svg"
 width="403.000000pt" height="529.000000pt" viewBox="0 0 403.000000 529.000000"
 preserveAspectRatio="xMidYMid meet">
<metadata>
Created by potrace 1.16, written by Peter Selinger 2001-2019
</metadata>
<g transform="translate(0.000000,529.000000) scale(0.100000,-0.100000)"
fill="#000000" stroke="none">
<path d="M5 5280 c-41 -67 149 -310 313 -401 84 -46 213 -70 263 -47 8 4 26 8
40 10 13 2 29 6 34 10 264 166 409 -37 198 -277 -43 -50 -94 -110 -113 -135
-19 -25 -66 -82 -105 -127 -162 -190 -229 -291 -227 -342 1 -22 -3 -63 -8 -93
-6 -29 -11 -128 -11 -219 -1 -154 -3 -170 -26 -225 -49 -116 -63 -154 -83
-231 -20 -71 -25 -146 -15 -198 2 -11 4 -24 4 -29 1 -5 17 -23 36 -41 22 -22
36 -45 39 -67 8 -66 27 -117 61 -165 71 -99 127 -186 136 -212 10 -25 4 -584
-6 -601 -2 -4 -7 -32 -10 -61 -11 -98 -31 -174 -64 -239 -15 -29 -48 -149 -56
-205 -3 -16 -7 -40 -9 -52 -3 -12 -5 -48 -7 -80 -1 -51 1 -82 16 -183 47 -323
452 -815 820 -997 60 -30 118 -59 127 -64 23 -12 801 -12 814 0 5 5 79 11 164
15 314 12 353 16 378 39 77 71 -7 99 -248 82 -181 -12 -289 -23 -299 -30 -10
-6 -330 -7 -356 -1 -11 2 -22 5 -24 5 -13 3 25 30 52 36 17 4 34 8 37 9 3 1
43 18 90 38 47 20 97 39 110 42 14 3 36 8 50 12 52 14 111 15 181 4 44 -7 217
-12 421 -13 262 -2 350 -5 360 -15 6 -6 24 -12 38 -12 23 0 86 -17 140 -37 22
-9 31 -11 64 -18 16 -3 33 -8 37 -10 4 -3 24 -7 45 -11 22 -3 44 -10 51 -16
11 -9 45 -19 109 -33 63 -14 144 -20 181 -13 23 4 55 3 70 -1 56 -16 159 -13
177 4 17 18 18 25 17 125 -1 36 3 91 8 124 9 53 3 180 -15 291 -3 17 -8 52
-12 79 -8 55 -36 73 -51 33 -17 -45 -133 -127 -176 -127 -3 0 -19 -7 -35 -15
-17 -9 -30 -13 -30 -10 0 3 -17 -4 -37 -15 -48 -26 -202 -28 -278 -4 -27 8
-61 18 -75 20 -14 3 -34 8 -45 11 -11 4 -24 8 -30 9 -5 1 -33 9 -62 17 -28 8
-53 13 -56 11 -7 -7 -87 34 -87 45 0 10 47 34 135 66 39 14 79 30 90 35 46 21
95 39 95 35 0 -3 23 4 50 15 28 11 50 17 50 14 0 -4 6 -1 14 5 8 7 27 14 43
17 15 2 46 8 68 14 109 25 151 35 160 36 105 12 264 161 266 247 2 151 -15
327 -33 332 -29 10 -117 -37 -183 -97 -69 -62 -138 -106 -210 -133 -27 -10
-63 -26 -80 -35 -16 -9 -57 -25 -90 -34 -33 -10 -77 -24 -98 -32 -20 -8 -37
-11 -37 -8 0 3 -10 -2 -22 -10 -12 -9 -35 -16 -51 -16 -16 0 -36 -4 -46 -9
-41 -23 -224 -40 -311 -30 -182 22 -218 39 -196 95 7 19 9 483 2 504 -3 8 -7
42 -10 75 -3 33 -8 71 -11 85 -12 62 -15 77 -20 110 -8 48 -14 69 -36 115
-123 265 -123 261 -12 268 45 3 87 8 93 12 5 3 19 8 30 10 12 2 51 24 88 48
80 53 192 107 220 107 12 0 23 4 26 9 4 5 25 12 49 16 23 4 49 11 58 15 8 5
33 11 55 14 21 3 46 7 54 9 129 32 342 51 572 52 211 0 221 8 212 159 -7 106
-6 201 1 251 5 33 6 241 1 265 -16 81 -83 82 -136 1 -73 -111 -161 -145 -241
-95 -22 13 -35 14 -199 14 -85 0 -180 4 -210 10 -62 12 -102 18 -176 25 -73 7
-151 23 -174 35 -11 6 -20 8 -20 5 0 -3 -13 1 -29 10 -46 23 -333 22 -451 -2
-56 -12 -302 -14 -400 -4 -197 20 -213 22 -233 32 -26 14 -15 52 28 101 39 43
50 75 41 121 -4 17 -9 59 -12 92 -10 105 -44 137 -142 136 -49 -1 -57 153 -16
329 3 14 7 32 8 40 9 56 22 100 38 132 46 88 -12 143 -104 98 -63 -30 -97 120
-45 198 44 67 112 216 115 252 0 3 4 32 8 65 10 73 10 72 1 116 -9 46 -40 58
-56 23 -16 -35 -27 -29 -37 19 -20 92 -68 51 -78 -68 -14 -161 -78 -295 -93
-196 -8 54 -132 231 -211 302 -146 131 -344 156 -500 62 -70 -43 -118 -63
-146 -63 -12 0 -27 -5 -33 -11 -59 -59 -322 68 -280 135 29 47 -14 75 -65 42
-31 -20 -106 -16 -122 7 -15 19 -32 22 -41 7z"/>
</g>
</svg>
