<?xml version="1.0" standalone="no"?>
<!DOCTYPE svg PUBLIC "-//W3C//DTD SVG 20010904//EN"
 "http://www.w3.org/TR/2001/REC-SVG-20010904/DTD/svg10.dtd">
<svg version="1.0" xmlns="http://www.w3.org/2000/svg"
 width="368.000000pt" height="527.000000pt" viewBox="0 0 368.000000 527.000000"
 preserveAspectRatio="xMidYMid meet">
<metadata>
Created by potrace 1.16, written by Peter Selinger 2001-2019
</metadata>
<g transform="translate(0.000000,527.000000) scale(0.100000,-0.100000)"
fill="#000000" stroke="none">
<path d="M1075 5247 c-8 -13 -20 -38 -27 -57 -6 -19 -26 -55 -44 -80 -27 -39
-51 -89 -45 -98 1 -1 -6 -16 -14 -32 -8 -16 -15 -31 -14 -32 34 -53 -93 -160
-212 -179 -127 -19 -172 -55 -224 -175 -14 -32 -30 -68 -36 -79 -6 -12 -11
-27 -13 -35 -2 -8 -6 -22 -9 -30 -4 -8 -9 -26 -11 -40 -16 -83 -17 -85 -59
-104 -34 -16 -136 -44 -184 -50 -15 -3 -40 -9 -56 -15 -15 -6 -27 -8 -27 -5 0
9 -60 -26 -80 -49 -63 -66 83 -183 272 -217 80 -15 105 -29 147 -82 49 -61
117 -116 299 -238 174 -117 286 -203 487 -377 200 -172 232 -225 250 -418 13
-143 19 -178 40 -273 8 -34 17 -74 20 -90 3 -15 8 -38 11 -52 4 -14 8 -38 9
-55 2 -16 7 -59 11 -95 18 -136 8 -1177 -12 -1239 -3 -8 -7 -57 -11 -110 -3
-53 -9 -105 -13 -116 -37 -100 9 -292 90 -372 90 -90 382 -283 472 -312 21 -7
40 -17 43 -22 4 -5 13 -9 22 -9 8 0 29 -7 46 -15 18 -8 46 -16 62 -19 17 -2
30 -5 30 -6 0 -1 14 -4 30 -6 17 -2 62 -11 100 -20 39 -9 86 -17 105 -19 19
-2 46 -6 60 -9 42 -10 193 -8 228 3 17 5 32 8 32 6 0 -3 12 0 28 6 72 28 269
30 312 4 4 -3 27 -7 50 -10 24 -3 48 -9 54 -13 26 -16 230 -10 266 8 118 61
149 179 81 307 -60 111 -105 122 -207 52 -67 -46 -126 -48 -213 -8 -70 33 -76
53 -15 55 274 8 475 229 409 451 -8 28 -16 62 -17 77 -11 125 -203 85 -257
-53 -45 -114 -233 -203 -237 -111 -1 14 -13 74 -28 133 -69 273 -73 307 -52
435 3 18 8 52 11 75 5 34 42 179 81 322 3 11 7 31 10 45 3 14 7 33 10 43 3 10
7 31 9 48 2 16 9 56 15 87 34 174 50 398 56 767 6 328 10 355 47 355 6 0 37
13 71 29 34 15 72 32 85 36 118 37 168 96 174 206 3 46 8 102 12 125 8 52 -13
106 -52 130 -15 10 -30 19 -32 21 -4 3 -8 25 -10 59 -6 81 -138 71 -153 -11
-12 -70 -268 -84 -268 -14 0 144 -635 673 -845 703 -17 3 -41 7 -55 11 -34 9
-396 9 -440 0 -153 -31 -307 -13 -296 33 4 15 10 41 13 57 3 17 9 35 13 40 5
6 10 24 13 40 3 17 13 54 22 84 26 84 27 90 31 188 2 54 0 95 -6 98 -23 14 -7
49 40 93 82 77 87 122 13 122 -61 0 -124 -32 -191 -98 -60 -58 -76 -60 -86
-10 -25 123 -198 271 -241 205z"/>
</g>
</svg>
