<?xml version="1.0" standalone="no"?>
<!DOCTYPE svg PUBLIC "-//W3C//DTD SVG 20010904//EN"
 "http://www.w3.org/TR/2001/REC-SVG-20010904/DTD/svg10.dtd">
<svg version="1.0" xmlns="http://www.w3.org/2000/svg"
 width="165.000000pt" height="442.000000pt" viewBox="0 0 165.000000 442.000000"
 preserveAspectRatio="xMidYMid meet">
<metadata>
Created by potrace 1.16, written by Peter Selinger 2001-2019
</metadata>
<g transform="translate(0.000000,442.000000) scale(0.100000,-0.100000)"
fill="#000000" stroke="none">
<path d="M1523 4407 c-20 -11 -339 -298 -505 -454 -42 -40 -80 -73 -85 -73 -4
0 -35 7 -68 15 -33 9 -73 18 -90 21 -63 12 -61 25 9 108 100 117 82 190 -51
211 -42 6 -143 32 -190 49 -22 8 -43 12 -46 10 -2 -3 -17 0 -33 7 -16 6 -38
12 -49 15 -11 2 -39 9 -62 15 -59 16 -92 -5 -60 -38 7 -6 197 -59 242 -67 17
-3 46 -11 120 -32 6 -2 26 -6 45 -9 98 -18 109 -46 45 -118 -26 -28 -95 -108
-153 -176 -119 -138 -92 -126 -242 -106 -25 4 -74 10 -110 15 -36 5 -78 11
-95 13 -108 19 -135 18 -135 -2 0 -25 8 -30 61 -36 53 -7 107 -15 134 -20 11
-2 43 -6 70 -10 28 -4 61 -9 75 -11 150 -23 162 -21 234 60 75 84 96 94 153
75 41 -14 57 -18 89 -23 67 -10 62 -18 -93 -159 -189 -170 -181 -152 -182
-422 -14 -2593 -37 -2331 224 -2556 97 -83 101 -94 43 -109 -24 -5 -57 -15
-74 -20 -64 -21 -78 -15 -155 71 -73 81 -73 81 -143 75 -93 -8 -114 -11 -242
-31 -60 -9 -129 -20 -154 -24 -39 -5 -45 -9 -45 -31 0 -31 31 -31 205 0 111
19 273 32 285 23 6 -4 51 -55 99 -113 49 -58 114 -130 143 -161 51 -53 71
-108 38 -102 -5 0 -17 -3 -26 -8 -9 -4 -27 -10 -40 -13 -57 -12 -74 -16 -108
-27 -20 -7 -46 -13 -58 -15 -12 -1 -44 -9 -70 -17 -26 -8 -75 -20 -108 -28
-69 -14 -84 -23 -81 -47 5 -30 43 -26 226 23 181 49 245 65 260 65 97 0 102
105 11 211 -62 71 -65 84 -25 94 200 49 145 79 497 -264 422 -411 388 -475
393 727 8 1681 -7 3386 -30 3411 -21 23 -60 27 -93 8z"/>
</g>
</svg>
