<?xml version="1.0" encoding="iso-8859-1"?>
<!-- Uploaded to: SVG Repo, www.svgrepo.com, Generator: SVG Repo Mixer Tools -->
<!DOCTYPE svg PUBLIC "-//W3C//DTD SVG 1.1//EN" "http://www.w3.org/Graphics/SVG/1.1/DTD/svg11.dtd">
<svg fill="#000000" version="1.1" id="Capa_1" xmlns="http://www.w3.org/2000/svg" xmlns:xlink="http://www.w3.org/1999/xlink" 
	 width="800px" height="800px" viewBox="0 0 93.94 93.94" xml:space="preserve"
	>
<g>
	<g>
		<path d="M51.478,93.887c-0.551-0.034-1.1-0.1-1.647-0.209l-1.632-0.876c-8.064-3.642-6.537-8.932-4.594-15.694
			c0.455-1.567,0.92-3.203,1.24-4.859c1.591-10.629,2.165-21.984-2.555-28.305c-3.754-5.029-12.746-4.933-13.268-11.68
			c-0.255-3.304,0.603-5.989,2.555-7.976c4.57-4.647,14.224-4.798,19.571-4.471c4.443,0.265,4.834,0.767,6.832,1.295
			c20.831,5.426,8.569,15.164,6.79,40.226C63.976,72.618,72.723,95.177,51.478,93.887z"/>
		<g>
			<path d="M28.292,0c-0.672,0-1.331,0.113-1.945,0.333c-1.99,0.7-3.451,2.411-4.12,4.798c-0.606,2.187-0.469,4.723,0.385,7.144
				c1.535,4.342,4.942,7.258,8.47,7.258c0.669,0,1.325-0.109,1.949-0.334c1.926-0.679,3.367-2.327,4.053-4.628
				c0.678-2.227,0.562-4.818-0.321-7.31C35.228,2.919,31.821,0,28.292,0z"/>
			<path d="M42.373,3.297c-2.4,0.558-3.711,3.442-2.986,6.57c0.606,2.688,2.671,4.707,4.794,4.707c0.262,0,0.529-0.032,0.746-0.083
				c0.95-0.217,1.786-0.832,2.354-1.735c0.812-1.297,1.047-3.063,0.642-4.843C47.219,4.865,44.904,2.811,42.373,3.297z"/>
			<path d="M53.47,4.647c-2.115,0.007-3.817,2.018-3.977,4.678c-0.081,1.271,0.214,2.501,0.831,3.458
				c0.646,1.009,1.608,1.627,2.736,1.69h0.093c2.017,0,3.725-2.062,3.886-4.7C57.11,8.492,56.81,7.265,56.2,6.336
				C55.567,5.333,54.605,4.717,53.47,4.647z"/>
			<path d="M65.345,10.549c-0.438-1.109-1.271-1.903-2.29-2.167c-2.098-0.539-4.223,1.181-4.9,3.785
				c-0.387,1.479-0.229,2.982,0.432,4.106c0.469,0.806,1.181,1.374,2.005,1.591c0.239,0.063,0.493,0.091,0.743,0.091
				c1.8,0,3.59-1.668,4.164-3.875C65.816,12.847,65.762,11.596,65.345,10.549z"/>
			<path d="M71.792,15.923c-0.359-0.907-1.044-1.559-1.845-1.779l-0.681-0.087c-1.492,0-2.927,1.328-3.398,3.15
				c-0.267,1.003-0.223,2.026,0.12,2.873c0.362,0.912,1.047,1.564,1.943,1.805l0.571,0.067c1.509,0,2.946-1.328,3.415-3.154
				C72.179,17.785,72.134,16.789,71.792,15.923z"/>
		</g>
	</g>
</g>
</svg>