<?xml version="1.0" standalone="no"?>
<!DOCTYPE svg PUBLIC "-//W3C//DTD SVG 20010904//EN"
 "http://www.w3.org/TR/2001/REC-SVG-20010904/DTD/svg10.dtd">
<svg version="1.0" xmlns="http://www.w3.org/2000/svg"
 width="792.000000pt" height="1280.000000pt" viewBox="0 0 792.000000 1280.000000"
 preserveAspectRatio="xMidYMid meet">
<metadata>
Created by potrace 1.15, written by Peter Selinger 2001-2017
</metadata>
<g transform="translate(0.000000,1280.000000) scale(0.100000,-0.100000)"
fill="#000000" stroke="none">
<path d="M6353 12784 c-17 -7 -34 -22 -38 -33 -8 -25 12 -102 45 -177 18 -40
25 -66 19 -75 -11 -18 -11 -76 0 -115 7 -23 5 -36 -8 -53 -17 -22 -17 -22 -34
37 -21 74 -61 126 -87 112 -21 -11 -82 -128 -135 -258 -38 -91 -39 -93 -133
-169 -52 -42 -132 -112 -177 -157 -78 -78 -86 -89 -182 -281 -138 -274 -315
-652 -653 -1396 -169 -371 -257 -550 -368 -749 -155 -279 -297 -482 -419 -602
-89 -89 -126 -113 -243 -158 -175 -69 -323 -153 -422 -239 -36 -32 -49 -54
-67 -108 -74 -226 -246 -482 -462 -688 -66 -64 -104 -91 -179 -127 -138 -67
-355 -137 -690 -221 -372 -94 -475 -132 -545 -202 -28 -28 -125 -152 -215
-274 -91 -123 -205 -271 -253 -329 -93 -111 -230 -310 -271 -390 -80 -158 -83
-296 -14 -762 44 -293 45 -468 5 -585 -44 -129 -160 -349 -265 -505 -95 -142
-99 -146 -170 -185 -164 -91 -288 -264 -357 -501 -29 -100 -40 -254 -18 -261
8 -3 29 31 56 89 69 147 89 165 246 213 246 75 345 230 259 404 l-25 52 190
307 c104 169 191 309 194 312 8 9 33 -33 44 -75 55 -202 0 -783 -135 -1429
l-36 -169 20 -32 c28 -45 54 -152 97 -403 l37 -217 1 -515 c0 -561 -4 -626
-56 -860 -60 -267 -58 -387 4 -510 41 -79 61 -149 62 -215 0 -41 -6 -58 -32
-94 -43 -58 -44 -99 -3 -140 39 -39 85 -46 280 -45 124 1 166 5 210 20 66 23
73 42 35 97 -31 47 -31 49 1 37 14 -6 61 -10 104 -10 44 0 105 -7 137 -15 98
-26 198 -31 228 -11 46 30 28 103 -45 181 -21 22 -43 58 -50 80 -17 54 -57
133 -88 174 -21 28 -28 54 -38 136 -7 55 -22 127 -33 158 -12 31 -30 82 -41
112 -36 99 -79 422 -136 1040 -33 354 -35 486 -11 580 13 52 19 119 22 255 l3
185 127 280 c129 283 200 411 407 733 136 214 222 331 315 434 90 99 180 245
259 416 l53 115 183 -2 c327 -3 659 -27 722 -51 18 -6 24 -21 35 -86 7 -43 26
-121 41 -174 58 -196 94 -495 135 -1131 19 -294 19 -373 0 -524 -21 -168 -19
-226 11 -319 79 -249 109 -568 109 -1176 0 -357 0 -366 -22 -405 -65 -119 -67
-125 -67 -235 l-1 -106 43 -66 c58 -89 54 -104 -53 -218 -63 -66 -85 -97 -91
-125 -19 -105 75 -145 361 -149 102 -1 192 -9 249 -20 57 -11 107 -15 137 -11
32 5 62 1 95 -10 45 -15 284 -35 284 -23 0 31 -40 119 -75 167 -35 47 -45 70
-45 99 0 37 -5 50 -68 162 -38 68 -59 149 -72 276 -6 55 -24 146 -40 204 -24
87 -32 143 -44 325 -38 536 -45 999 -18 1108 6 20 27 56 47 78 21 23 46 61 57
86 17 39 18 52 9 113 -23 146 -6 474 45 880 55 438 93 578 290 1065 l97 240 4
145 c3 80 0 206 -5 280 -12 163 -11 168 77 483 86 304 105 394 98 474 -6 84
-56 182 -159 313 -87 112 -91 122 -123 300 -29 162 -19 223 63 410 54 125 106
224 260 505 64 116 129 242 145 280 66 162 188 599 353 1265 119 476 196 744
311 1070 168 479 320 780 417 827 32 15 39 14 128 -10 165 -45 309 -63 608
-73 l195 -7 65 -38 c111 -65 203 -87 230 -54 10 12 15 12 39 -6 33 -25 87 -38
121 -29 15 3 32 20 43 40 42 80 -8 226 -117 346 -47 52 -56 58 -95 59 -41 1
-47 6 -237 195 -144 144 -201 208 -218 245 -13 28 -50 86 -82 130 -58 78 -59
80 -60 150 -2 105 -34 155 -99 155 -25 0 -38 -11 -84 -69 -18 -24 -20 -24 -43
-9 -14 9 -33 38 -43 65 -33 87 -134 281 -165 317 -41 46 -79 54 -132 27 l-41
-20 -34 29 c-37 33 -53 35 -100 14z m-2141 -10367 c12 -124 18 -1264 8 -1514
-5 -117 -4 -122 19 -147 23 -25 101 -233 101 -271 0 -12 -12 -28 -30 -39 -30
-17 -31 -17 -50 6 -50 59 -72 192 -75 443 l-2 200 -32 80 -33 80 12 315 c6
173 10 439 8 590 -3 266 -2 278 21 350 20 65 25 72 32 52 5 -13 14 -79 21
-145z m-2917 -654 c24 -180 35 -382 41 -723 7 -391 11 -419 69 -476 72 -70 88
-179 35 -248 -16 -22 -33 -55 -36 -73 l-7 -34 -32 31 c-23 22 -34 44 -38 72
-3 22 -31 91 -61 153 l-56 112 20 579 c23 667 28 755 41 731 5 -9 16 -65 24
-124z"/>
</g>
</svg>
