<?xml version="1.0" standalone="no"?>
<!DOCTYPE svg PUBLIC "-//W3C//DTD SVG 20010904//EN"
 "http://www.w3.org/TR/2001/REC-SVG-20010904/DTD/svg10.dtd">
<svg version="1.0" xmlns="http://www.w3.org/2000/svg"
 width="64.000000pt" height="305.000000pt" viewBox="0 0 64.000000 305.000000"
 preserveAspectRatio="xMidYMid meet">
<metadata>
Created by potrace 1.16, written by Peter Selinger 2001-2019
</metadata>
<g transform="translate(0.000000,305.000000) scale(0.100000,-0.100000)"
fill="#000000" stroke="none">
<path d="M609 3046 l-4 -4 -65 -6 -65 -7 -142 0 -141 0 -14 -16 -13 -16 13 -4
12 -5 0 -13 0 -13 -16 -6 -16 -6 -31 0 -32 0 -47 -60 -48 -60 48 -60 47 -60
32 0 31 0 16 -6 16 -6 0 -14 0 -14 -10 0 -10 0 0 -15 0 -15 13 -1 12 -1 20 -2
20 -1 3 -17 3 -18 -15 0 -16 0 0 -24 0 -24 20 -5 20 -5 0 -21 0 -21 -19 0 -18
0 4 -24 5 -24 19 -5 19 -5 0 -17 0 -17 -19 -5 -20 -5 6 -16 6 -17 14 -8 13 -8
0 -24 0 -25 -15 0 -15 0 0 -24 0 -24 17 2 18 1 3 -23 3 -22 -18 -8 -18 -7 0
-40 0 -40 18 -7 17 -7 0 -17 0 -16 -20 -5 -20 -5 0 -24 0 -24 13 3 12 2 3 -27
3 -28 -19 0 -20 0 5 -19 5 -20 14 -5 14 -5 0 -22 0 -21 -20 -5 -20 -5 0 -18 0
-18 15 -6 15 -5 0 -22 0 -21 -20 -5 -20 -5 0 -24 0 -24 8 3 7 2 0 -10 0 -10
-9 3 -8 3 -19 -6 -19 -6 0 -15 0 -14 10 0 10 0 0 -14 0 -14 -16 -6 -16 -6 -31
0 -32 0 -48 -60 -47 -59 47 -61 48 -60 32 0 31 0 16 -6 16 -6 0 -14 0 -14 -10
0 -10 0 0 -14 0 -15 32 -3 33 -3 3 -17 3 -18 -15 0 -16 0 0 -24 0 -24 20 -5
20 -5 0 -21 0 -21 -21 0 -21 0 6 -16 6 -16 0 -8 0 -8 17 2 18 1 3 -23 4 -23
-20 -6 -20 -5 5 -18 5 -19 14 -5 14 -5 0 -26 0 -25 -15 0 -15 0 0 -24 0 -24
17 2 18 1 3 -23 4 -23 -19 -5 -19 -5 4 -37 5 -37 13 -8 14 -8 0 -20 0 -21 -20
-5 -20 -5 0 -24 0 -24 13 2 12 3 3 -27 3 -28 -20 0 -20 0 6 -18 6 -17 14 -8
13 -8 0 -20 0 -21 -19 -5 -19 -5 -5 -18 -5 -18 19 -5 19 -5 0 -21 0 -20 -22
-13 -23 -12 -7 -2 -8 -1 -10 -2 -10 -1 0 -15 0 -15 10 0 10 0 0 -14 0 -14 -16
-6 -16 -6 -31 0 -32 0 -49 -61 -48 -61 24 -26 25 -27 22 -32 22 -33 37 0 37 0
14 -9 15 -10 -11 -24 -12 -25 14 -6 14 -5 164 0 164 0 27 -11 27 -10 30 0 29
0 0 220 0 220 -15 0 -15 0 0 18 0 17 11 140 10 140 0 75 0 75 -5 75 -6 75 -6
113 -7 112 16 0 17 0 0 220 0 220 -15 0 -16 0 6 143 6 142 5 16 5 17 0 93 0
94 -5 80 -6 80 -7 113 -6 112 16 0 17 0 0 220 0 220 -13 0 -14 0 -4 -4z"/>
</g>
</svg>
