<?xml version="1.0" standalone="no"?>
<!DOCTYPE svg PUBLIC "-//W3C//DTD SVG 20010904//EN"
 "http://www.w3.org/TR/2001/REC-SVG-20010904/DTD/svg10.dtd">
<svg version="1.0" xmlns="http://www.w3.org/2000/svg"
 width="462.000000pt" height="298.000000pt" viewBox="0 0 462.000000 298.000000"
 preserveAspectRatio="xMidYMid meet">
<metadata>
Created by potrace 1.16, written by Peter Selinger 2001-2019
</metadata>
<g transform="translate(0.000000,298.000000) scale(0.100000,-0.100000)"
fill="#000000" stroke="none">
<path d="M983 2961 c-117 -55 -103 -200 26 -274 62 -35 185 -77 276 -94 10 -2
44 -17 73 -34 30 -17 138 -59 239 -94 310 -106 265 -162 -99 -124 -48 5 -118
12 -155 15 -37 3 -84 7 -103 8 -19 2 -111 6 -205 10 -93 4 -224 9 -290 12
-312 14 -393 -1 -448 -84 -82 -122 -24 -235 138 -267 67 -13 75 -14 220 -20
368 -15 367 -15 498 -50 9 -3 26 -7 37 -10 11 -3 30 -8 43 -12 12 -3 101 -7
199 -7 184 -1 214 -7 157 -30 -53 -21 -956 -39 -1204 -23 -246 15 -265 13
-324 -30 -128 -97 -44 -308 131 -329 24 -3 52 -7 63 -9 11 -2 74 -5 140 -5
123 -1 348 -18 480 -35 55 -7 290 -5 370 4 44 5 87 9 95 10 224 13 237 13 245
1 10 -16 -22 -47 -55 -54 -68 -15 -177 -37 -204 -40 -17 -3 -53 -9 -81 -15
-27 -6 -66 -13 -85 -15 -19 -3 -46 -8 -60 -11 -14 -3 -38 -8 -54 -11 -16 -2
-32 -7 -35 -9 -4 -2 -28 -6 -55 -9 -26 -3 -51 -8 -55 -10 -4 -3 -32 -7 -62
-10 -29 -3 -79 -10 -109 -16 -30 -6 -145 -13 -255 -16 -233 -7 -253 -13 -275
-89 -76 -254 101 -319 751 -275 226 15 252 17 349 29 121 15 141 18 275 41
168 29 297 30 415 5 14 -3 39 -8 55 -11 17 -3 64 -14 105 -25 41 -11 86 -22
99 -25 14 -3 28 -7 33 -10 5 -3 20 -8 35 -10 93 -17 84 -76 -13 -87 -49 -6
-93 -16 -119 -27 -11 -5 -58 -23 -105 -42 -366 -142 -508 -287 -508 -518 0
-249 112 -289 326 -117 107 87 163 124 230 153 31 14 66 30 77 34 20 9 200 70
220 74 6 2 30 8 53 15 45 12 185 38 212 39 17 0 108 10 160 17 129 18 186 53
500 315 214 178 260 212 323 240 45 20 71 25 242 50 91 14 254 8 445 -15 69
-9 145 -18 170 -20 25 -3 55 -7 68 -10 22 -5 22 -5 22 645 0 650 0 650 -23
641 -13 -5 -44 -12 -68 -15 -24 -2 -80 -9 -124 -15 -44 -5 -87 -9 -95 -10 -8
0 -80 -3 -160 -7 -94 -4 -171 -2 -220 5 -41 7 -91 14 -110 17 -102 15 -280 77
-445 154 -127 60 -276 118 -347 136 -10 2 -28 7 -40 10 -13 3 -36 7 -53 10
-16 3 -48 10 -70 16 -22 5 -51 12 -65 14 -14 3 -33 7 -42 10 -21 6 -54 13 -98
20 -19 3 -62 10 -95 15 -33 5 -78 12 -100 14 -22 2 -62 7 -90 11 -27 4 -61 7
-75 5 -45 -3 -184 19 -280 45 -30 8 -66 17 -79 20 -14 3 -28 7 -33 10 -4 3
-17 7 -28 10 -11 2 -29 6 -40 9 -11 3 -29 7 -40 10 -11 3 -29 7 -40 10 -11 3
-29 7 -40 10 -11 3 -28 7 -39 9 -27 6 -111 35 -146 51 -65 29 -182 64 -340
101 -69 17 -172 14 -212 -5z"/>
</g>
</svg>
